<mxfile host="app.diagrams.net" modified="2024-06-06T11:28:59.386Z" agent="Mozilla/5.0 (Windows NT 10.0; Win64; x64) AppleWebKit/537.36 (KHTML, like Gecko) Chrome/123.0.0.0 Safari/537.36 OPR/109.0.0.0" etag="Oh_3jmHwguVkHF2juUoo" version="24.4.2" type="github">
  <diagram id="C5RBs43oDa-KdzZeNtuy" name="Page-1">
    <mxGraphModel dx="1118" dy="1527" grid="1" gridSize="10" guides="1" tooltips="1" connect="1" arrows="1" fold="1" page="1" pageScale="1" pageWidth="827" pageHeight="1169" math="0" shadow="0">
      <root>
        <mxCell id="WIyWlLk6GJQsqaUBKTNV-0" />
        <mxCell id="WIyWlLk6GJQsqaUBKTNV-1" parent="WIyWlLk6GJQsqaUBKTNV-0" />
        <mxCell id="g0lz2-g8cAUWbuDHJg4Z-0" value="School" style="swimlane;fontStyle=1;align=center;verticalAlign=top;childLayout=stackLayout;horizontal=1;startSize=26;horizontalStack=0;resizeParent=1;resizeParentMax=0;resizeLast=0;collapsible=1;marginBottom=0;whiteSpace=wrap;html=1;" vertex="1" parent="WIyWlLk6GJQsqaUBKTNV-1">
          <mxGeometry x="230" y="200" width="230" height="300" as="geometry" />
        </mxCell>
        <mxCell id="g0lz2-g8cAUWbuDHJg4Z-1" value="- schoolId : String&lt;div&gt;- name : String&lt;/div&gt;&lt;div&gt;- address : String&lt;/div&gt;&lt;div&gt;- students : Student[]&lt;/div&gt;&lt;div&gt;- teachers : Teachers[]&lt;/div&gt;&lt;div&gt;- courses : Course[]&lt;/div&gt;" style="text;strokeColor=none;fillColor=none;align=left;verticalAlign=top;spacingLeft=4;spacingRight=4;overflow=hidden;rotatable=0;points=[[0,0.5],[1,0.5]];portConstraint=eastwest;whiteSpace=wrap;html=1;" vertex="1" parent="g0lz2-g8cAUWbuDHJg4Z-0">
          <mxGeometry y="26" width="230" height="94" as="geometry" />
        </mxCell>
        <mxCell id="g0lz2-g8cAUWbuDHJg4Z-2" value="" style="line;strokeWidth=1;fillColor=none;align=left;verticalAlign=middle;spacingTop=-1;spacingLeft=3;spacingRight=3;rotatable=0;labelPosition=right;points=[];portConstraint=eastwest;strokeColor=inherit;" vertex="1" parent="g0lz2-g8cAUWbuDHJg4Z-0">
          <mxGeometry y="120" width="230" height="8" as="geometry" />
        </mxCell>
        <mxCell id="g0lz2-g8cAUWbuDHJg4Z-3" value="+ getSchoolId() : String&lt;div&gt;+ getName() : String&lt;/div&gt;&lt;div&gt;+ getAddress() : String&lt;/div&gt;&lt;div&gt;+ getStudents() : Student[]&lt;/div&gt;&lt;div&gt;+ getTeachers() : Teacher[]&lt;/div&gt;&lt;div&gt;+ getCourses() : Course[]&lt;/div&gt;&lt;div&gt;+ setName(name:String) : void&lt;/div&gt;&lt;div&gt;+ setAddress(address:String) : void&lt;/div&gt;&lt;div&gt;+ setStudents(students:Student[]) : void&lt;/div&gt;&lt;div&gt;+ setTeachers(teachers:Teacher[]) : void&lt;/div&gt;" style="text;strokeColor=none;fillColor=none;align=left;verticalAlign=top;spacingLeft=4;spacingRight=4;overflow=hidden;rotatable=0;points=[[0,0.5],[1,0.5]];portConstraint=eastwest;whiteSpace=wrap;html=1;" vertex="1" parent="g0lz2-g8cAUWbuDHJg4Z-0">
          <mxGeometry y="128" width="230" height="172" as="geometry" />
        </mxCell>
        <mxCell id="g0lz2-g8cAUWbuDHJg4Z-4" value="Student" style="swimlane;fontStyle=1;align=center;verticalAlign=top;childLayout=stackLayout;horizontal=1;startSize=26;horizontalStack=0;resizeParent=1;resizeParentMax=0;resizeLast=0;collapsible=1;marginBottom=0;whiteSpace=wrap;html=1;" vertex="1" parent="WIyWlLk6GJQsqaUBKTNV-1">
          <mxGeometry x="210" y="570" width="230" height="110" as="geometry" />
        </mxCell>
        <mxCell id="g0lz2-g8cAUWbuDHJg4Z-5" value="- courses : Course[]" style="text;strokeColor=none;fillColor=none;align=left;verticalAlign=top;spacingLeft=4;spacingRight=4;overflow=hidden;rotatable=0;points=[[0,0.5],[1,0.5]];portConstraint=eastwest;whiteSpace=wrap;html=1;" vertex="1" parent="g0lz2-g8cAUWbuDHJg4Z-4">
          <mxGeometry y="26" width="230" height="26" as="geometry" />
        </mxCell>
        <mxCell id="g0lz2-g8cAUWbuDHJg4Z-6" value="" style="line;strokeWidth=1;fillColor=none;align=left;verticalAlign=middle;spacingTop=-1;spacingLeft=3;spacingRight=3;rotatable=0;labelPosition=right;points=[];portConstraint=eastwest;strokeColor=inherit;" vertex="1" parent="g0lz2-g8cAUWbuDHJg4Z-4">
          <mxGeometry y="52" width="230" height="8" as="geometry" />
        </mxCell>
        <mxCell id="g0lz2-g8cAUWbuDHJg4Z-7" value="+ getCourses() : Course[]&lt;div&gt;+ setCourses(courses:Course[]) : void&lt;/div&gt;" style="text;strokeColor=none;fillColor=none;align=left;verticalAlign=top;spacingLeft=4;spacingRight=4;overflow=hidden;rotatable=0;points=[[0,0.5],[1,0.5]];portConstraint=eastwest;whiteSpace=wrap;html=1;" vertex="1" parent="g0lz2-g8cAUWbuDHJg4Z-4">
          <mxGeometry y="60" width="230" height="50" as="geometry" />
        </mxCell>
        <mxCell id="g0lz2-g8cAUWbuDHJg4Z-8" value="Course" style="swimlane;fontStyle=1;align=center;verticalAlign=top;childLayout=stackLayout;horizontal=1;startSize=26;horizontalStack=0;resizeParent=1;resizeParentMax=0;resizeLast=0;collapsible=1;marginBottom=0;whiteSpace=wrap;html=1;" vertex="1" parent="WIyWlLk6GJQsqaUBKTNV-1">
          <mxGeometry x="490" y="620" width="250" height="240" as="geometry" />
        </mxCell>
        <mxCell id="g0lz2-g8cAUWbuDHJg4Z-9" value="- courseId : String&lt;div&gt;- name : String&lt;/div&gt;&lt;div&gt;- teacher : Teacher&lt;/div&gt;&lt;div&gt;- students : Student[]&lt;/div&gt;" style="text;strokeColor=none;fillColor=none;align=left;verticalAlign=top;spacingLeft=4;spacingRight=4;overflow=hidden;rotatable=0;points=[[0,0.5],[1,0.5]];portConstraint=eastwest;whiteSpace=wrap;html=1;" vertex="1" parent="g0lz2-g8cAUWbuDHJg4Z-8">
          <mxGeometry y="26" width="250" height="84" as="geometry" />
        </mxCell>
        <mxCell id="g0lz2-g8cAUWbuDHJg4Z-10" value="" style="line;strokeWidth=1;fillColor=none;align=left;verticalAlign=middle;spacingTop=-1;spacingLeft=3;spacingRight=3;rotatable=0;labelPosition=right;points=[];portConstraint=eastwest;strokeColor=inherit;" vertex="1" parent="g0lz2-g8cAUWbuDHJg4Z-8">
          <mxGeometry y="110" width="250" height="8" as="geometry" />
        </mxCell>
        <mxCell id="g0lz2-g8cAUWbuDHJg4Z-11" value="+ getCourseId() : String&lt;div&gt;+ getName() : String&lt;/div&gt;&lt;div&gt;+ getTeacher() : Teacher&lt;/div&gt;&lt;div&gt;+ getStudents() : Student[]&lt;/div&gt;&lt;div&gt;+ setName(name:String) : void&lt;/div&gt;&lt;div&gt;+ setTeacher(teacher:Teacher) : void&lt;/div&gt;&lt;div&gt;+ setStudents(students:Student[]) : void&lt;/div&gt;" style="text;strokeColor=none;fillColor=none;align=left;verticalAlign=top;spacingLeft=4;spacingRight=4;overflow=hidden;rotatable=0;points=[[0,0.5],[1,0.5]];portConstraint=eastwest;whiteSpace=wrap;html=1;" vertex="1" parent="g0lz2-g8cAUWbuDHJg4Z-8">
          <mxGeometry y="118" width="250" height="122" as="geometry" />
        </mxCell>
        <mxCell id="g0lz2-g8cAUWbuDHJg4Z-12" value="Teacher" style="swimlane;fontStyle=1;align=center;verticalAlign=top;childLayout=stackLayout;horizontal=1;startSize=26;horizontalStack=0;resizeParent=1;resizeParentMax=0;resizeLast=0;collapsible=1;marginBottom=0;whiteSpace=wrap;html=1;" vertex="1" parent="WIyWlLk6GJQsqaUBKTNV-1">
          <mxGeometry x="530" y="450" width="240" height="110" as="geometry" />
        </mxCell>
        <mxCell id="g0lz2-g8cAUWbuDHJg4Z-13" value="- subjects : Subject[]" style="text;strokeColor=none;fillColor=none;align=left;verticalAlign=top;spacingLeft=4;spacingRight=4;overflow=hidden;rotatable=0;points=[[0,0.5],[1,0.5]];portConstraint=eastwest;whiteSpace=wrap;html=1;" vertex="1" parent="g0lz2-g8cAUWbuDHJg4Z-12">
          <mxGeometry y="26" width="240" height="24" as="geometry" />
        </mxCell>
        <mxCell id="g0lz2-g8cAUWbuDHJg4Z-14" value="" style="line;strokeWidth=1;fillColor=none;align=left;verticalAlign=middle;spacingTop=-1;spacingLeft=3;spacingRight=3;rotatable=0;labelPosition=right;points=[];portConstraint=eastwest;strokeColor=inherit;" vertex="1" parent="g0lz2-g8cAUWbuDHJg4Z-12">
          <mxGeometry y="50" width="240" height="8" as="geometry" />
        </mxCell>
        <mxCell id="g0lz2-g8cAUWbuDHJg4Z-15" value="+ getSubjects() : Subject[]&lt;div&gt;+ setSubjects(subjects:Subject[]) : void&lt;/div&gt;" style="text;strokeColor=none;fillColor=none;align=left;verticalAlign=top;spacingLeft=4;spacingRight=4;overflow=hidden;rotatable=0;points=[[0,0.5],[1,0.5]];portConstraint=eastwest;whiteSpace=wrap;html=1;" vertex="1" parent="g0lz2-g8cAUWbuDHJg4Z-12">
          <mxGeometry y="58" width="240" height="52" as="geometry" />
        </mxCell>
        <mxCell id="g0lz2-g8cAUWbuDHJg4Z-16" value="Subject" style="swimlane;fontStyle=1;align=center;verticalAlign=top;childLayout=stackLayout;horizontal=1;startSize=26;horizontalStack=0;resizeParent=1;resizeParentMax=0;resizeLast=0;collapsible=1;marginBottom=0;whiteSpace=wrap;html=1;" vertex="1" parent="WIyWlLk6GJQsqaUBKTNV-1">
          <mxGeometry x="515" y="240" width="270" height="190" as="geometry" />
        </mxCell>
        <mxCell id="g0lz2-g8cAUWbuDHJg4Z-17" value="- subjectId : String&lt;div&gt;- name : String&lt;/div&gt;&lt;div&gt;- description : String&lt;/div&gt;" style="text;strokeColor=none;fillColor=none;align=left;verticalAlign=top;spacingLeft=4;spacingRight=4;overflow=hidden;rotatable=0;points=[[0,0.5],[1,0.5]];portConstraint=eastwest;whiteSpace=wrap;html=1;" vertex="1" parent="g0lz2-g8cAUWbuDHJg4Z-16">
          <mxGeometry y="26" width="270" height="64" as="geometry" />
        </mxCell>
        <mxCell id="g0lz2-g8cAUWbuDHJg4Z-18" value="" style="line;strokeWidth=1;fillColor=none;align=left;verticalAlign=middle;spacingTop=-1;spacingLeft=3;spacingRight=3;rotatable=0;labelPosition=right;points=[];portConstraint=eastwest;strokeColor=inherit;" vertex="1" parent="g0lz2-g8cAUWbuDHJg4Z-16">
          <mxGeometry y="90" width="270" height="8" as="geometry" />
        </mxCell>
        <mxCell id="g0lz2-g8cAUWbuDHJg4Z-19" value="+ getSubjectId() : String&lt;div&gt;+ getName() : String&lt;/div&gt;&lt;div&gt;+ getDescription() : String&lt;/div&gt;&lt;div&gt;+ setName(name:String) : void&lt;/div&gt;&lt;div&gt;+ setDescription(description:String) : void&lt;/div&gt;" style="text;strokeColor=none;fillColor=none;align=left;verticalAlign=top;spacingLeft=4;spacingRight=4;overflow=hidden;rotatable=0;points=[[0,0.5],[1,0.5]];portConstraint=eastwest;whiteSpace=wrap;html=1;" vertex="1" parent="g0lz2-g8cAUWbuDHJg4Z-16">
          <mxGeometry y="98" width="270" height="92" as="geometry" />
        </mxCell>
        <mxCell id="g0lz2-g8cAUWbuDHJg4Z-24" value="Person" style="swimlane;fontStyle=1;align=center;verticalAlign=top;childLayout=stackLayout;horizontal=1;startSize=26;horizontalStack=0;resizeParent=1;resizeParentMax=0;resizeLast=0;collapsible=1;marginBottom=0;whiteSpace=wrap;html=1;" vertex="1" parent="WIyWlLk6GJQsqaUBKTNV-1">
          <mxGeometry x="110" y="750" width="210" height="210" as="geometry" />
        </mxCell>
        <mxCell id="g0lz2-g8cAUWbuDHJg4Z-25" value="# id : String&lt;div&gt;# name : String&lt;/div&gt;&lt;div&gt;# address : String&lt;/div&gt;" style="text;strokeColor=none;fillColor=none;align=left;verticalAlign=top;spacingLeft=4;spacingRight=4;overflow=hidden;rotatable=0;points=[[0,0.5],[1,0.5]];portConstraint=eastwest;whiteSpace=wrap;html=1;" vertex="1" parent="g0lz2-g8cAUWbuDHJg4Z-24">
          <mxGeometry y="26" width="210" height="74" as="geometry" />
        </mxCell>
        <mxCell id="g0lz2-g8cAUWbuDHJg4Z-26" value="" style="line;strokeWidth=1;fillColor=none;align=left;verticalAlign=middle;spacingTop=-1;spacingLeft=3;spacingRight=3;rotatable=0;labelPosition=right;points=[];portConstraint=eastwest;strokeColor=inherit;" vertex="1" parent="g0lz2-g8cAUWbuDHJg4Z-24">
          <mxGeometry y="100" width="210" height="8" as="geometry" />
        </mxCell>
        <mxCell id="g0lz2-g8cAUWbuDHJg4Z-27" value="+ getId() : String&lt;div&gt;+ getName() : String&lt;/div&gt;&lt;div&gt;+ getAddres() : String&lt;/div&gt;&lt;div&gt;+ setName(name:String) : void&lt;/div&gt;&lt;div&gt;+ setAddress(address:String) : void&lt;/div&gt;" style="text;strokeColor=none;fillColor=none;align=left;verticalAlign=top;spacingLeft=4;spacingRight=4;overflow=hidden;rotatable=0;points=[[0,0.5],[1,0.5]];portConstraint=eastwest;whiteSpace=wrap;html=1;" vertex="1" parent="g0lz2-g8cAUWbuDHJg4Z-24">
          <mxGeometry y="108" width="210" height="102" as="geometry" />
        </mxCell>
      </root>
    </mxGraphModel>
  </diagram>
</mxfile>
